<?xml version="1.0" standalone="no"?>
<!DOCTYPE svg PUBLIC "-//W3C//DTD SVG 20010904//EN"
 "http://www.w3.org/TR/2001/REC-SVG-20010904/DTD/svg10.dtd">
<svg version="1.0" xmlns="http://www.w3.org/2000/svg"
 width="260.000000pt" height="260.000000pt" viewBox="0 0 260.000000 260.000000"
 preserveAspectRatio="xMidYMid meet">
<metadata>
Created by potrace 1.11, written by Peter Selinger 2001-2013
</metadata>
<g transform="translate(0.000000,260.000000) scale(0.100000,-0.100000)"
fill="#000000" stroke="none">
<path d="M695 1819 c-80 -22 -148 -128 -149 -234 -1 -81 28 -125 116 -175 84
-48 88 -61 91 -314 2 -168 6 -208 21 -241 58 -130 90 -187 111 -201 38 -25
146 -30 189 -10 19 9 37 24 40 34 5 15 18 17 112 14 102 -3 108 -5 133 -31 20
-22 39 -29 84 -34 83 -10 144 7 168 48 l20 33 112 4 c100 4 259 33 325 59 24
9 29 41 10 56 -7 6 -33 13 -57 17 -25 4 -85 26 -135 50 -77 37 -110 61 -211
156 -88 84 -136 121 -184 144 -62 28 -75 31 -218 36 -123 4 -155 8 -169 22
-12 12 -18 46 -25 137 -17 247 -53 354 -137 409 -28 18 -201 33 -247 21z m200
-87 c17 -11 40 -39 53 -64 25 -51 52 -215 52 -323 0 -53 6 -82 23 -115 34 -70
70 -82 246 -88 175 -6 202 -15 306 -112 112 -104 174 -152 249 -191 l70 -37
-58 -7 c-31 -4 -98 -5 -148 -3 l-91 4 -30 -48 -30 -48 -61 0 c-58 0 -62 1 -72
28 -11 29 -12 29 -119 35 -194 12 -214 11 -227 -18 -10 -22 -17 -25 -69 -25
l-58 0 -40 84 c-53 110 -64 162 -56 261 8 113 -9 259 -39 327 -21 47 -32 59
-73 79 -70 34 -93 63 -93 116 0 49 21 101 51 129 37 34 169 43 214 16z"/>
<path d="M691 1666 c-17 -20 -4 -56 20 -56 24 0 36 27 22 48 -14 22 -28 25
-42 8z"/>
<path d="M821 1666 c-14 -17 1 -56 22 -56 33 0 50 53 21 64 -23 9 -30 8 -43
-8z"/>
<path d="M712 1558 c3 -7 20 -22 40 -32 34 -19 37 -19 63 -2 33 21 20 46 -13
25 -17 -10 -24 -10 -46 4 -30 20 -49 22 -44 5z"/>
</g>
</svg>
